HIERARCHY
ROOT hip
{
	OFFSET 0.000000 0.000000 0.000000 
	CHANNELS 6 Xposition Yposition Zposition Xrotation Zrotation Yrotation
	JOINT abdomen
	{
		OFFSET 0.000000 3.402643 0.000000 
		CHANNELS 3 Xrotation Zrotation Yrotation
		JOINT chest
		{
			OFFSET 0.000000 8.438565 -0.680529 
			CHANNELS 3 Xrotation Zrotation Yrotation
			JOINT neck
			{
				OFFSET 0.000000 10.207942 -0.272212 
				CHANNELS 3 Xrotation Zrotation Yrotation
				JOINT head
				{
					OFFSET 0.000000 3.130431 0.000000 
					CHANNELS 3 Xrotation Zrotation Yrotation
					End Site
					{
						OFFSET 0.000000 3.130435 0.000000 
					}
				}
			}
			JOINT lCollar
			{
				OFFSET 3.470700 6.669187 -0.816635 
				CHANNELS 3 Yrotation Zrotation Xrotation
				JOINT lShldr
				{
					OFFSET 3.198488 0.000000 0.000000 
					CHANNELS 3 Zrotation Yrotation Xrotation
					JOINT lForeArm
					{
						OFFSET 10.139888 0.000000 0.000000 
						CHANNELS 3 Yrotation Zrotation Xrotation
						JOINT lHand
						{
							OFFSET 8.370511 0.000000 0.000000 
							CHANNELS 3 Zrotation Yrotation Xrotation
							End Site
							{
								OFFSET 4.083176 0.000000 0.000000 
							}
						}
					}
				}
			}
			JOINT rCollar
			{
				OFFSET -3.470700 6.669187 -0.816635 
				CHANNELS 3 Yrotation Zrotation Xrotation
				JOINT rShldr
				{
					OFFSET -3.198488 0.000000 0.000000 
					CHANNELS 3 Zrotation Yrotation Xrotation
					JOINT rForeArm
					{
						OFFSET -10.139888 0.000000 0.000000 
						CHANNELS 3 Yrotation Zrotation Xrotation
						JOINT rHand
						{
							OFFSET -8.370511 0.000000 0.000000 
							CHANNELS 3 Zrotation Yrotation Xrotation
							End Site
							{
								OFFSET -4.083176 0.000000 0.000000 
							}
						}
					}
				}
			}
		}
	}
	JOINT lThigh
	{
		OFFSET 5.308129 -1.633274 1.361059 
		CHANNELS 3 Xrotation Zrotation Yrotation
		JOINT lShin
		{
			OFFSET -2.041588 -20.007561 0.000000 
			CHANNELS 3 Xrotation Zrotation Yrotation
			JOINT lFoot
			{
				OFFSET 0.000000 -19.190928 -1.224953 
				CHANNELS 3 Xrotation Yrotation Zrotation
				End Site
				{
					OFFSET 0.000000 -2.449906 4.627600 
				}
			}
		}
	}
	JOINT rThigh
	{
		OFFSET -5.308129 -1.633274 1.361059 
		CHANNELS 3 Xrotation Zrotation Yrotation
		JOINT rShin
		{
			OFFSET 2.041588 -20.007561 0.000000 
			CHANNELS 3 Xrotation Zrotation Yrotation
			JOINT rFoot
			{
				OFFSET 0.000000 -19.190928 -1.224953 
				CHANNELS 3 Xrotation Yrotation Zrotation
				End Site
				{
					OFFSET 0.000000 -2.449906 4.627600 
				}
			}
		}
	}
}
MOTION
Frames: 11
Frame Time: 0.033333
-2.442600 65.918472 -60.801384 -10.592910 4.974477 -55.383064 6.700277 8.062134 -10.758776 13.694135 -17.209810 19.872353 -8.544922 -0.001505 -0.009645 9.308614 -4.091368 47.737217 2.000000 -2.000000 0.000000 -41.111740 23.888575 -8.243667 -87.407738 -0.516329 8.958634 -6.824703 17.727646 -12.907212 -2.000000 2.000000 0.000000 81.291046 -2.855719 -53.272552 64.069511 0.521730 8.719460 3.871936 -18.647741 -11.540494 -71.537033 55.604706 -47.450001 27.895412 -1.274236 -2.372177 -10.043450 3.901864 7.714268 -45.625031 -48.410976 -33.311451 110.337425 -3.921623 3.810314 7.848256 2.345075 2.745650 
-2.442600 64.931854 -62.378685 -7.652506 2.617018 -37.734837 8.534375 7.004460 -8.553591 13.132743 -17.346031 20.055593 -8.544922 -0.001505 -0.009645 8.417724 -3.710873 30.359142 2.000000 -2.000000 0.000000 -44.241901 26.867180 -9.997422 -79.848923 -0.507046 8.879602 -6.824703 17.727646 -12.907212 -2.000000 2.000000 0.000000 82.792168 -3.787006 -50.702507 71.603409 0.510565 8.792942 3.871936 -18.647741 -11.540494 -59.778526 55.065029 -34.930248 39.081364 -0.784749 -2.975452 -5.488639 0.337188 4.188702 -61.187935 -51.048782 -16.714876 91.545685 -2.616832 4.158734 22.808601 3.554822 -3.188941 
-2.427573 63.744843 -63.940857 -5.078191 -0.810272 -17.242710 11.052760 6.091152 -6.236501 12.986395 -17.145584 19.701868 -8.544922 -0.001505 -0.009645 6.920117 -3.885123 9.201000 2.000000 -2.000000 0.000000 -50.124615 29.694937 -14.078332 -71.032066 -0.512305 8.790964 -6.824703 17.727646 -12.907212 -2.000000 2.000000 0.000000 83.518478 -4.324341 -46.131397 79.110458 0.507402 8.868240 3.871936 -18.647741 -11.540494 -47.590324 53.180653 -21.948662 51.626358 -0.094416 -3.549594 0.380581 -4.072934 1.005087 -78.673187 -50.307362 3.288883 66.510384 -0.868265 3.970742 39.752468 6.726604 -9.762609 
-2.427573 62.412563 -65.518158 -3.684763 -4.794155 4.106989 13.984208 5.223581 -3.740047 13.179628 -16.787542 19.143038 -8.544922 -0.001505 -0.009645 4.931166 -4.317592 -12.843592 2.000000 -2.000000 0.000000 -57.322197 31.232847 -18.683968 -61.906780 -0.535361 8.694234 -6.824703 17.727646 -12.907212 -2.000000 2.000000 0.000000 83.622910 -4.100441 -40.539196 85.771675 0.508860 8.941262 3.871936 -18.647741 -11.540494 -36.799965 49.887375 -10.395651 64.269020 0.687901 -3.947238 6.043682 -8.263797 -1.881657 -93.415245 -45.995441 21.135859 40.127670 0.722629 2.977207 55.748337 11.032874 -15.123844 
-2.437587 60.669479 -67.105461 -3.681354 -8.406648 24.365923 17.115477 4.249740 -0.986542 13.669694 -16.484331 18.687965 -8.544922 -0.001505 -0.009645 2.566644 -4.827274 -32.865215 2.000000 -2.000000 0.000000 -64.086212 30.983036 -22.017719 -53.394428 -0.569463 8.609070 -6.824703 17.727646 -12.907212 -2.000000 2.000000 0.000000 83.382927 -2.792246 -34.974308 90.680626 0.521370 8.986634 3.871936 -18.647741 -11.540494 -28.579037 45.804134 -1.451312 75.697998 1.476698 -4.165953 9.764495 -11.787187 -5.062838 -103.125732 -40.029247 33.447121 17.320709 1.608101 1.637571 68.177681 15.309657 -18.424889 
-2.422560 58.395710 -68.667633 -4.492015 -10.839916 41.538517 20.161697 3.061824 2.028721 14.371790 -16.447357 18.683817 -8.544922 -0.001505 -0.009645 0.021626 -5.321854 -47.984566 2.000000 -2.000000 0.000000 -68.506844 28.963314 -22.301785 -46.491211 -0.597781 8.547104 -6.824703 17.727646 -12.907212 -2.000000 2.000000 0.000000 83.154007 -0.062035 -30.439865 92.980484 0.530858 9.012191 3.871936 -18.647741 -11.540494 -23.103937 41.784065 4.535506 84.701797 2.110012 -4.231411 9.762877 -14.235131 -8.879284 -108.635323 -34.825378 39.850758 3.069456 1.900864 0.670507 74.627945 18.883924 -19.672743 
-2.437587 55.195206 -70.259933 -5.270875 -11.643297 54.132309 23.212809 1.486417 5.435421 15.403140 -16.802937 19.331198 -8.544922 -0.001505 -0.009645 -2.912351 -5.868026 -55.913822 2.000000 -2.000000 0.000000 -69.565186 24.718195 -18.367556 -41.939785 -0.629020 8.508730 -6.824703 17.727646 -12.907212 -2.000000 2.000000 0.000000 83.113731 4.515499 -27.591597 92.369759 0.523103 9.003098 3.871936 -18.647741 -11.540494 -20.077436 38.571522 7.898011 90.141571 2.490001 -4.202380 4.465339 -14.986250 -13.469668 -110.789345 -32.314762 40.168743 1.555663 1.900190 0.568418 72.656158 21.927135 -18.921301 
-2.462639 50.857819 -71.862236 -5.285523 -10.883516 62.612385 26.532850 -0.659053 9.316304 17.020983 -17.513292 20.605312 -8.544922 -0.001505 -0.009645 -6.956051 -6.759340 -56.823349 2.000000 -2.000000 0.000000 -68.331200 17.460321 -10.694432 -39.630524 -0.644294 8.484168 -6.824703 17.727646 -12.907212 -2.000000 2.000000 0.000000 82.930191 11.098763 -26.072659 89.439621 0.519646 8.973110 3.871936 -18.647741 -11.540494 -18.836123 36.449741 9.180196 92.061638 2.625910 -4.203129 -6.503188 -13.626468 -18.850874 -109.801842 -32.939663 34.736374 12.575218 1.733155 1.340791 61.592911 24.715128 -16.256285 
-2.477667 45.658955 -73.454544 -4.484657 -9.143036 68.224144 30.044903 -3.483285 13.340166 19.117670 -18.448151 22.207754 -8.544922 -0.001505 -0.009645 -11.859361 -8.034781 -52.797256 2.000000 -2.000000 0.000000 -66.638779 7.534853 -1.317941 -38.839386 -0.650671 8.487062 -6.824703 17.727646 -12.907212 -2.000000 2.000000 0.000000 82.010780 19.262659 -25.293682 84.844070 0.507156 8.927231 3.871936 -18.647741 -11.540494 -18.662066 35.224300 9.232655 91.428200 2.587229 -4.194145 -21.024410 -9.795026 -23.656677 -106.095703 -35.429398 25.086729 32.131264 1.093459 2.524814 44.410271 27.019213 -12.572176 
-2.487680 40.304691 -75.041847 -3.172365 -7.157585 71.967407 33.422497 -6.801147 17.031176 21.362326 -19.476261 23.897537 -8.544922 -0.001505 -0.009645 -16.853546 -9.459164 -46.127369 2.000000 -2.000000 0.000000 -65.665588 -3.953205 8.228345 -38.821632 -0.644055 8.480368 -6.824703 17.727646 -12.907212 -2.000000 2.000000 0.000000 79.841354 28.242109 -24.931683 78.939690 0.508544 8.864300 3.871936 -18.647741 -11.540494 -19.060675 34.556271 8.579910 89.448235 2.450966 -4.227977 -36.392284 -3.951585 -26.308426 -100.484688 -38.085045 12.952870 55.595665 -0.156264 3.651448 25.107294 28.433836 -9.072462 
-2.487680 35.391361 -76.619019 -1.709849 -5.564284 74.902359 36.437275 -10.279477 20.053461 23.466516 -20.456509 25.433887 -8.544922 -0.001505 -0.009645 -21.140287 -10.773890 -39.243507 2.000000 -2.000000 0.000000 -66.060486 -15.481502 17.025864 -38.710861 -0.647551 8.489560 -6.824703 17.727646 -12.907212 -2.000000 2.000000 0.000000 76.167847 37.139648 -24.754711 72.087425 0.510872 8.789904 3.871936 -18.647741 -11.540494 -19.578905 34.098404 7.781776 87.275307 2.275192 -4.236640 -50.721348 2.178378 -26.525423 -94.749481 -39.752674 1.002757 78.378143 -1.689531 4.153160 7.129089 29.046865 -6.321287 
